<svg xmlns="http://www.w3.org/2000/svg" viewBox="0 0 622 751">
    <title>TripMe</title>
    <g fill="none" fill-rule="evenodd">
        <path fill="#fdd35d" d="M305.21 0h12.44c53.52 1.22 106.67 16.37 152.62 43.87 31.59 18.86 59.88 43.29 82.91 72 25.04 31.05 44.01 66.98 55.53 105.17 12.51 41.27 16.25 85.15 10.96 127.94-7.22 59.6-32.26 116.9-71.08 162.7-14.05 16.86-30.32 31.64-45.69 47.26-60.65 60.67-121.32 121.31-181.98 181.97-2.81 2.78-5.47 5.73-8.59 8.17-.18.48-.53 1.44-.71 1.92h-1.08c-.17-1.43-1.3-2.47-2.2-3.46-32.35-32.3-64.64-64.66-96.99-96.96-21.91-20.73-42.48-42.83-63.97-63.99-14.4-14.26-28.53-28.81-43.13-42.86-16.2-14.88-31.12-31.17-44.13-48.92C23.87 445.47 2.7 385.22.28 324.03c-1.94-45.09 6.14-90.56 23.47-132.23 16.91-40.78 42.61-77.91 74.88-108.04 26.43-24.65 57.15-44.7 90.42-58.86C225.7 9.23 265.37.83 305.21 0z"/>
        <path fill="#323232" d="M303.81 178.87c3.28-3.31 5.28-7.53 7.28-11.66 2.35 6.24 6.29 12.03 11.94 15.71 3.2 2.05 6.63 4.33 8 8.08 1.89 4.13.57 8.73-.85 12.78 4.3-2.32 9.31-.88 13.92-.63 6.65.5 13.75 3.76 16.69 10.07 1.75 3.33 1.02 7.18.46 10.72-6.22 6.44-6.83 16.65-2.18 24.16-7.73-1.13-14.07-7.24-16.36-14.57-1.03-3.34-3.07-6.3-5.68-8.6-3.63-2.94-9.59-2.2-12.46 1.46-2.03 3.4-3.43 8.2-.35 11.45 3.8 4.23 6.47 9.47 7.04 15.19.38 1.44-.25 4.08-2.28 3.49-1.61.03-3.13-.52-4.66-.93 1.28 14.22 5.5 28.1 10.92 41.26 2.4 6.23 6.91 12.25 13.61 14.1 6.68 2.31 13.97.17 19.84-3.29 9.48-6.68 15.75-17.17 18.29-28.4-3.82 0-8.05 1.68-11.43-.88-5.24-3.16-6.05-11.26-1.63-15.45 2.06-2.34 5.25-2.77 8.17-3.09-1.33-7.36 4.28-15.07 11.78-15.71 6.51-.99 13.19 3.6 14.7 9.98.81 2.92.16 5.93-.42 8.83 4.01.85 7.84 3.66 8.59 7.89 1.44 5.56-2.91 11.63-8.62 12.06-3.14.54-5.92-1.2-8.52-2.66.44 10.94 2.89 22.38 10.15 30.93 4.77 6.03 12.63 9.91 20.4 8.58 4.67-.55 8.84-3.16 11.93-6.64 8-8.68 14.15-18.97 18.74-29.82 2.3-5.23 4.6-10.54 5.8-16.16.8-3.18-.78-6.24-1.74-9.18-1.73-5.68-7.46-9.02-12.92-10.34-5.12-1.38-10.09 1.06-15.17 1.31 3.81-6.55 10.3-11.85 18.02-12.64 7.39-1.22 14.89 1.17 20.85 5.55-1.13-5.3-2.03-11.26 1-16.13 3.79-5.21 9.2-8.93 13.31-13.85 2-2.42 3.15-5.6 5.97-7.27 12.76 16.35 12.31 42.07-2.11 57.27-3.29 3.63-7.85 5.56-11.97 8.01-3.05 10.25-5.13 20.8-7.79 31.16-3.92 16.12-7.85 32.22-11.69 48.35-21.48-6.4-43.72-9.9-65.92-12.62-56.53-6.33-113.78-6.35-170.31-.07-22.49 2.47-44.75 6.71-66.64 12.35-6.09-25.72-12.42-51.39-18.64-77.08-.16-2.86-3.31-3.35-5.28-4.62-6.01-3.03-10.56-8.33-13.65-14.21-6.85-12.97-6.59-29.26.05-42.25 1.16-2.07 2.17-4.38 4.08-5.87 1.57.19 2.45 1.59 3.2 2.81 4.23 7.39 11.82 11.92 16.84 18.7 1.81 4.97 1.46 10.28.21 15.33 5.94-4.37 13.41-6.76 20.8-5.57 7.75.77 14.26 6.08 18.09 12.64-3.44-.14-6.72-1.25-10.11-1.68-6.18-.34-12.56 2.42-16.37 7.31-1.76 3.24-3.07 6.81-3.59 10.46.53 5.59 2.91 10.8 5.01 15.96 5.12 12.29 11.82 24.16 21.27 33.65 5.76 5.85 15.31 6.9 22.52 3.27 7.2-3.61 12.04-10.67 14.83-18.04 2.61-6.21 3.13-12.96 3.63-19.6-3.36 2.22-7.63 3.8-11.51 1.88-5.72-2.36-7.75-10.36-3.85-15.14 1.57-2.31 4.26-3.26 6.81-4.03-1.39-4.91-1.11-10.68 2.65-14.5 4.96-5.85 15-5.86 19.98-.02 2.98 3 3.89 7.33 3.43 11.43 4.18.05 8.54 1.97 10.21 6.04 2.25 4.85-.07 11.11-5 13.23-3.13 1.52-6.61.33-9.82-.2 1.65 11.05 8.13 21.02 16.81 27.91 7.14 5.05 17.25 7.1 25.08 2.37 7.49-4.46 9.98-13.35 12.95-20.97 3.46-10.59 6.72-21.44 7.55-32.62-2.02.57-4.1.87-6.18 1.11-2.11-6.51 1.72-13.42 5.86-18.35 4.77-4.8 1.18-14.48-5.55-15.14-6.34-1.15-10.78 5.02-12.53 10.3-2.29 7.34-8.65 13.46-16.39 14.57 4.72-7.48 4.04-17.73-2.15-24.17-1.18-4.93-.94-10.55 2.85-14.34 6.46-7.08 16.8-6.88 25.61-7.09.86.47 1.72.95 2.59 1.42-1.31-4.15-2.77-8.77-.81-12.96 2.21-5.92 8.96-7.59 12.82-12.09zm-66.89 165.64c54.69-5.15 109.96-4.76 164.51 1.84 19.59 2.63 39.2 5.77 58.24 11.21-.13.81-.39 2.45-.51 3.27 2.05.8 4.27 1.61 5.69 3.42 3.26 3.8 2.89 10.29-1.13 13.43-2.02 2.11-5.03 2.16-7.72 2.46-.81 2.95-1.78 5.87-2.15 8.92 3.9 4.54 7.51 9.32 11.07 14.13-5.02 2.6-10.17 4.95-15.16 7.6-1.67.81-2.21 2.75-3.17 4.2 3.36 1.41 6.77 3.99 7.23 7.88 1.31 5.66-4.18 12.51-10.18 10.69-22.44-6.42-45.58-9.99-68.76-12.42-47.3-4.74-95.14-4.28-142.31 1.68-18.26 2.37-36.45 5.66-54.17 10.73-6.01 1.87-11.5-4.98-10.23-10.64.42-3.91 3.88-6.42 7.17-7.96-.94-1.44-1.43-3.37-3.09-4.16-5-2.64-10.15-5-15.17-7.6 3.56-4.82 7.2-9.6 11.08-14.16-.4-3.03-1.36-5.95-2.15-8.88-5.31.39-11.04-3.49-11-9.15-.58-4.9 3.28-9.05 7.83-10.15-.13-.82-.38-2.46-.51-3.28 24.34-6.88 49.49-10.37 74.59-13.06zm63.32 22.66c-4.23 3.92-8.64 7.66-12.8 11.66 3.38 2.9 6.75 5.81 10.08 8.77.98.75 2 1.82 3.38 1.58 6.72-.19 13.44-.19 20.16 0 1.4.24 2.47-.84 3.47-1.62 3.29-2.94 6.63-5.81 9.97-8.69-4.07-4.11-8.54-7.78-12.78-11.71-7.16.14-14.32.11-21.48.01zm-61.91 4.44c-4.68 1.6-7.83 6.49-7.79 11.37.72 5.53 5.74 10.42 11.51 9.98 6.69.39 12.4-6.66 10.81-13.13-1.17-6.37-8.43-10.48-14.53-8.22zm138.07-.02c-6.89 2.15-9.95 11.56-5.17 17.14 4.63 6.55 16.04 5.31 19.08-2.15 4.43-8.2-5.37-18.43-13.91-14.99z"/>
    </g>
</svg>
